<svg xmlns="http://www.w3.org/2000/svg" xmlns:xlink="http://www.w3.org/1999/xlink" xmlns:sketch="http://www.bohemiancoding.com/sketch/ns" viewBox="0 0 100 125" version="1.1" x="0px" y="0px"><title>kden-light-document-google-drive</title><desc>Created with Sketch.</desc><g stroke="none" stroke-width="1" fill="none" fill-rule="evenodd" sketch:type="MSPage"><g sketch:type="MSArtboardGroup" fill="#000000"><path d="M57.3918961,4 L19.9998408,4 C17.7838823,4 16,5.78993837 16,7.99793926 L16,90.0020607 C16,92.2022159 17.7907897,94 19.9998408,94 L80.0001592,94 C82.2161177,94 84,92.2100616 84,90.0020607 L84,30.6081039 L84,30.0275454 C84,28.9256801 83.3695434,27.4019851 82.5863832,26.6188249 L61.3811751,5.41361678 C60.6004561,4.63289779 59.0726263,4 57.9724546,4 L57.3918961,4 L57.3918961,4 L57.3918961,4 Z M62.1943376,28.0065858 C60.9824384,28.0065858 60,27.0191037 60,25.8122482 L60,7.89017689 C60,7.34331735 60.3147451,7.21474516 60.7022539,7.60225397 L80.4043318,27.3043319 C80.792176,27.692176 80.6577429,28.0065858 80.1164089,28.0065858 L62.1943376,28.0065858 L62.1943376,28.0065858 Z M38.0030188,75.5550438 C38.1395848,75.791583 38.4703288,75.983475 38.75871,75.9836574 L63.1940447,75.9991144 C63.4748355,75.9992921 63.8127515,75.8084079 63.9515561,75.5679914 L69.8076312,65.4249717 C69.9452024,65.1866914 69.9471115,64.8033917 69.8034496,64.554198 L57.6305766,43.439329 C57.4906959,43.1966943 57.1571956,43 56.8801852,43 L45.1932923,43 C44.9187433,43 44.5859207,43.1906914 44.441417,43.4406139 L32.1972213,64.6172357 C32.056521,64.8605801 32.0519452,65.2474819 32.1897354,65.4861416 L38.0030188,75.5550438 L38.0030188,75.5550438 Z M67.1677023,66 L62.5819822,73.9990934 L40.6492055,74 L45.2583589,66.0032723 L67.1677023,66 L67.1677023,66 Z M45.2052623,46.0848719 L49.8398204,54.0557687 L38.8742172,73.0505638 L34.2534245,65.060556 L45.2052623,46.0848719 L45.2052623,46.0848719 Z M57.9567021,64 L46.9895286,45.0067197 L56.2194746,45 L67.1769802,63.9718042 L57.9567021,64 L57.9567021,64 Z M46.3987813,64 L51.0308369,56 L55.6527534,64 L46.3987813,64 L46.3987813,64 Z M20.2030249,6 C18.9796768,6 18,6.98073023 18,8.19052228 L18,89.8094777 C18,91.019363 18.9863278,92 20.2030249,92 L79.7969751,92 C81.0203232,92 82,91.0192698 82,89.8094777 L82,30.9685703 C82,30.4156693 81.5446779,29.9674546 81.0081609,29.9674546 L61.9992748,29.9674546 C59.7905363,29.9674546 58,28.1806599 58,25.9681798 L58,6.99022514 C58,6.4433389 57.5491912,6 57.0084507,6 L20.2030249,6 L20.2030249,6 Z" sketch:type="MSShapeGroup"/></g></g></svg>