<svg xmlns="http://www.w3.org/2000/svg" xmlns:xlink="http://www.w3.org/1999/xlink" version="1.1" x="0px" y="0px" viewBox="0 0 100 125" enable-background="new 0 0 100 100" xml:space="preserve"><path d="M66.7,57.1c-0.4,0-0.8-0.2-1.2-0.5c-0.6-0.6-0.6-1.7,0-2.3l22.6-22.6c5.2-5.2,5.2-13.6,0-18.8l-0.2-0.2  c-5.2-5.2-13.6-5.2-18.8,0L46.5,35.3c-5.2,5.2-5.2,13.6,0,18.8c0.6,0.6,0.6,1.7,0,2.3c-0.6,0.6-1.7,0.6-2.3,0  c-6.4-6.4-6.4-16.9,0-23.4l22.6-22.6c6.4-6.4,16.9-6.4,23.4,0l0.2,0.2c6.4,6.4,6.4,16.9,0,23.4L67.8,56.6  C67.5,57,67.1,57.1,66.7,57.1z M33.7,90.7l22.6-22.6c6.4-6.4,6.4-16.9,0-23.4c-0.6-0.6-1.7-0.6-2.3,0c-0.6,0.6-0.6,1.7,0,2.3  c5.2,5.2,5.2,13.6,0,18.8L31.4,88.4c-5.2,5.2-13.6,5.2-18.8,0l-0.2-0.2c-5.2-5.2-5.2-13.6,0-18.8L35,46.8c0.6-0.6,0.6-1.7,0-2.3  c-0.6-0.6-1.7-0.6-2.3,0L10.1,67.1c-6.4,6.4-6.4,16.9,0,23.4l0.2,0.2c3.2,3.2,7.5,4.8,11.7,4.8C26.3,95.6,30.5,94,33.7,90.7z"/></svg>